<svg id="e0QvTVO5gJF1" xmlns="http://www.w3.org/2000/svg" xmlns:xlink="http://www.w3.org/1999/xlink" viewBox="0 0 2022 1360" shape-rendering="geometricPrecision" text-rendering="geometricPrecision" project-id="6150c3ca590c4cbbba39d6b7bf75cd62" export-id="2adf7c2fc636447aac8aa41efcb84f8e" cached="false"><polygon points="0,-209.934933 176.768503,93.007289 -192.085672,96.234215 0,-209.934933" transform="matrix(2.312259-1.645814-.316886-.445204 1557.86082 409.601392)" fill="#0aacee" stroke-width="0"/><polygon points="0,-2.457102 2.336843,-0.759286 1.444248,1.987837 -1.444248,1.987837 -2.336843,-0.759286 0,-2.457102" transform="translate(2441.600792 567.688907)" fill="#d2dbed" stroke-width="0"/><polygon points="-78.819108,-3.480053 463.837718,-217.820623 -363.818935,379.471628 -78.819108,-3.480053" transform="translate(1443.662127 298.431327)" fill="#62bdec" stroke-width="0"/><polygon points="107.230627,-251.890811 158.82272,-84.975213 -8.092877,122.404771 -209.403204,180.066523 107.230627,-251.890811" transform="translate(1857.496934 314.171858)" fill="#8fc7f0" stroke-width="0"/><polygon points="101.206696,-68.511935 104.039731,74.370525 -94.927555,-9.387887 101.206696,-68.511935" transform="translate(1743.021285 519.556628)" fill="#64bcec" stroke-width="0"/><polygon points="13.563696,-172.871402 227.177379,-82.020802 166.827577,-16.354362 -522.132284,-7.394516 13.563696,-172.871402" transform="translate(1614.218689 692.063359)" fill="#5d95ba" stroke-width="0"/><polygon points="151.079624,304.241424 201.294706,514.966809 -137.640163,438.913299 151.079624,304.241424" transform="translate(1570.981777 544.039976)" fill="#63bbea" stroke-width="0"/><polygon points="-132.866058,-178.78043 203.437303,-103.468317 -7.344388,124.962847 -132.866058,-178.78043" transform="translate(1555.965617 1173.549738)" fill="#8ec6ee" stroke-width="0"/><polygon points="313.719287,-72.978704 181.063641,-14.739779 295.116076,266.010712 -132.837281,-284.975706 313.719287,-72.978704" transform="translate(1224.696559 999.319886)" fill="#03aaec" stroke-width="0"/><polygon points="-480.25786,-255.456308 132.83728,-118.077583 -14.759698,-42.008371 -480.25786,-255.456308" transform="translate(1567.575693 960.717598)" fill="#64beed" stroke-width="0"/><polygon points="238.213594,94.012609 679.010803,674.896914 437.594039,670.035893 238.213594,94.012609" transform="translate(853.433391 630.327439)" fill="#5a96bb" stroke-width="0"/><line x1="-260.980663" y1="-81.600423" x2="260.980664" y2="81.600423" transform="translate(739.169449 600.006871)" fill="none" stroke="#3f5787" stroke-width="11"/><line x1="-219.477" y1="-156.166327" x2="219.477" y2="156.166327" transform="translate(773.638594 522.62716)" fill="none" stroke="#3f5787" stroke-width="11"/><line x1="-146.019799" y1="-198.447881" x2="144.207645" y2="192.745827" transform="translate(853.128662 490.268371)" fill="none" stroke="#3f5787" stroke-width="11"/><line x1="-354.506322" y1="0.699224" x2="354.506322" y2="-0.699224" transform="translate(640.76509 683.372606)" fill="none" stroke="#3f5787" stroke-width="11"/><line x1="7.968853" y1="-55.07536" x2="-10.833604" y2="50.998878" transform="translate(1030.942114 679.177265)" fill="#5aa8d4" stroke="#5aa8d4" stroke-width="11"/><line x1="8.735743" y1="56.310026" x2="-11.131004" y2="-52.957082" transform="translate(1058.556291 677.058987)" fill="#5aa8d4" stroke="#5aa8d4" stroke-width="11"/><line x1="-29.085538" y1="0.999246" x2="27.676596" y2="0.289719" transform="translate(1043.872598 728.822134)" fill="#5aa8d4" stroke="#5aa8d4" stroke-width="11"/><line x1="-20.641018" y1="-32.898565" x2="18.633988" y2="28.28776" transform="translate(1022.00009 602.6761)" fill="#5aa8d4" stroke="#5aa8d4" stroke-width="11"/><line x1="-21.191187" y1="33.09063" x2="18.179812" y2="-27.269717" transform="translate(1066.786318 597.046387)" fill="#5aa8d4" stroke="#5aa8d4" stroke-width="11"/><line x1="20.278542" y1="31.976398" x2="-22.717253" y2="-33.757559" transform="translate(1064.178173 543.589033)" fill="#5aa8d4" stroke="#5aa8d4" stroke-width="11"/><line x1="22.610016" y1="-36.079902" x2="-19.578259" y2="28.668164" transform="translate(1021.744852 546.324797)" fill="#5aa8d4" stroke="#5aa8d4" stroke-width="11"/><polygon points="8.142866,-44.682311 24.737231,-27.130468 1.2133,-27.447584 8.142866,-44.682311" transform="matrix(-.557219 0.830366-.830366-.557219 1020.805064 486.444713)" fill="#5aa8d4" stroke-width="0"/><ellipse rx="202.2" ry="136" transform="matrix(.082519 0 0 0.12029 1332.820079 183.009135)" fill="#d2dbed" stroke-width="0"/><ellipse rx="202.2" ry="136" transform="matrix(.082519 0 0 0.12029 753.589478 184.715404)" fill="#d2dbed" stroke-width="0"/><line x1="-132.076917" y1="-178.961363" x2="132.076917" y2="178.961364" transform="translate(886.809292 362.157069)" fill="none" stroke="#3f5787" stroke-width="3"/><line x1="-134.363963" y1="177.246079" x2="134.363964" y2="-177.246079" transform="translate(1195.560527 365.015876)" fill="none" stroke="#3f5787" stroke-width="3"/><line x1="289.277282" y1="118.211542" x2="-289.277282" y2="-118.211542" transform="translate(420.338861 179.219538)" fill="none" stroke="#3f5787" stroke-width="3"/><line x1="-180.158937" y1="-132.987985" x2="180.158936" y2="132.987985" transform="translate(311.220515 193.995981)" fill="none" stroke="#3f5787" stroke-width="3"/><line x1="58.537446" y1="79.565461" x2="-58.537446" y2="-79.56546" transform="translate(178.23253 153.076601)" fill="none" stroke="#3f5787" stroke-width="3"/><line x1="1.13665" y1="0" x2="-1.136649" y2="0" transform="translate(94.688797-115.172667)" fill="none" stroke="#3f5787" stroke-width="3"/><ellipse rx="96.046878" ry="88.090331" transform="translate(484.52594 154.089651)" paint-order="markers stroke fill" fill="#d2dbed" stroke-width="0"/></svg>
